<?xml version="1.0" encoding="UTF-8" standalone="no"?>
<svg
   xmlns:dc="http://purl.org/dc/elements/1.1/"
   xmlns:cc="http://creativecommons.org/ns#"
   xmlns:rdf="http://www.w3.org/1999/02/22-rdf-syntax-ns#"
   xmlns:svg="http://www.w3.org/2000/svg"
   xmlns="http://www.w3.org/2000/svg"
   xmlns:sodipodi="http://sodipodi.sourceforge.net/DTD/sodipodi-0.dtd"
   xmlns:inkscape="http://www.inkscape.org/namespaces/inkscape"
   width="210mm"
   height="297mm"
   viewBox="0 0 210 297"
   version="1.1"
   id="svg8"
   inkscape:version="1.0 (4035a4fb49, 2020-05-01)"
   sodipodi:docname="dessin.svg">
  <defs
     id="defs2">
    <inkscape:perspective
       id="perspective13"
       inkscape:persp3d-origin="105 : 99 : 1"
       inkscape:vp_z="210 : 148.5 : 1"
       inkscape:vp_y="0 : 1000 : 0"
       inkscape:vp_x="0 : 148.5 : 1"
       sodipodi:type="inkscape:persp3d" />
  </defs>
  <sodipodi:namedview
     inkscape:snap-page="true"
     id="base"
     pagecolor="#ffffff"
     bordercolor="#666666"
     borderopacity="1.0"
     inkscape:pageopacity="0.0"
     inkscape:pageshadow="2"
     inkscape:zoom="0.35"
     inkscape:cx="400"
     inkscape:cy="560"
     inkscape:document-units="mm"
     inkscape:current-layer="layer1"
     inkscape:document-rotation="0"
     showgrid="false"
     inkscape:window-width="1577"
     inkscape:window-height="1040"
     inkscape:window-x="104"
     inkscape:window-y="0"
     inkscape:window-maximized="0" />
  <metadata
     id="metadata5">
    <rdf:RDF>
      <cc:Work
         rdf:about="">
        <dc:format>image/svg+xml</dc:format>
        <dc:type
           rdf:resource="http://purl.org/dc/dcmitype/StillImage" />
        <dc:title />
      </cc:Work>
    </rdf:RDF>
  </metadata>
  <g
     inkscape:label="Calque 1"
     inkscape:groupmode="layer"
     id="layer1">
    <rect
       style="fill:#0000ff;fill-rule:evenodd;stroke-width:0.264583"
       id="rect10"
       width="790.7262"
       height="294.82144"
       x="-258.53571"
       y="-55.184521" />
    <ellipse
       style="fill:#ff0000;fill-rule:evenodd;stroke-width:0.264583"
       id="path16"
       cx="-143.63095"
       cy="30.238094"
       rx="86.178574"
       ry="46.869045" />
    <ellipse
       style="fill:#ff0000;fill-rule:evenodd;stroke-width:0.264583"
       id="path20"
       cx="407.08035"
       cy="57.074402"
       rx="78.997025"
       ry="43.467262" />
    <path
       style="fill:none;stroke:#000000;stroke-width:0.264583px;stroke-linecap:butt;stroke-linejoin:miter;stroke-opacity:1"
       d="m 124.73214,25.702381 c -0.53224,25.228854 -0.98997,50.351018 0,75.595239 0.95164,24.26677 0.75595,3.52175 0.75595,24.19047 0,7.81151 -0.86263,15.6708 0,23.43453 0.63496,5.71459 3.40086,11.7126 4.53572,17.3869 0.44718,2.23591 1.05386,4.51338 1.5119,6.80357 0.0988,0.49419 -0.0901,2.00775 0,1.51191 3.03863,-16.71243 7.97709,-32.66429 12.09524,-49.13691 1.96426,-7.85703 1.80582,-16.10481 2.26786,-24.19047 0.21563,-3.773607 -0.31389,-7.572582 0,-11.339288 0.71249,-8.549904 2.32739,-26.240054 0,-34.773809 -0.9018,-3.306587 -2.5987,-6.426493 -3.02381,-9.827381 -0.40663,-3.25302 -0.48622,-5.238403 -1.51191,-8.315476 -0.0797,-0.239053 0,-0.503968 0,-0.755951 0,-1.511906 0.51669,-3.114837 0,-4.535715 -0.9022,-2.48107 -5.29166,-6.052659 -5.29166,-9.071429"
       id="path24" />
    <path
       style="fill:none;stroke:#000000;stroke-width:0.264583px;stroke-linecap:butt;stroke-linejoin:miter;stroke-opacity:1"
       d="m -169.33333,162.52976 c 0.25198,3.27579 -0.24022,6.69657 0.75595,9.82738 3.67279,11.54306 20.55509,16.9707 30.2381,21.16667 18.63025,8.07311 6.85711,2.78967 16.63095,6.04761 0.33807,0.1127 0.40808,0.67865 0.75595,0.75596 7.23954,1.60878 14.65473,2.92063 21.92262,4.53571 0.491967,0.10933 1.048684,-0.19852 1.511904,0 1.350507,0.57879 2.408391,1.74041 3.779763,2.26786 1.939412,0.74593 4.105833,0.77218 6.047618,1.5119 3.371504,1.28439 6.484816,3.1778 9.827382,4.53572 9.959972,4.04624 20.234407,6.49282 30.238094,9.82738 4.659185,1.55306 8.605128,3.3814 13.607142,4.53571 0.736595,0.16999 1.534475,-0.18334 2.267857,0 6.617769,1.65445 12.756117,4.37185 19.654762,5.29167 8.7874307,1.17166 18.3775101,0 27.214285,0 8.456692,0 17.542537,1.20804 25.70238,-1.51191 5.9001,-1.96669 11.531576,-4.85179 17.386906,-6.80357 3.427936,-1.14264 6.510604,-3.87019 9.827381,-5.29166 2.092648,-0.89685 8.150461,0 9.827379,0 5.065091,0 12.832016,0.96561 18.142857,0 1.804882,-0.32816 3.486785,-1.18375 5.29167,-1.51191 1.51058,-0.27465 18.6044,0.46155 18.89881,0.75596 0.17818,0.17817 -0.22538,0.64326 0,0.75595 1.11249,0.55624 11.90522,0.13091 13.60714,0 10.64399,-0.81877 21.08996,-3.71571 31.75,-4.53572 4.44743,-0.34211 9.14668,0 13.60714,0 2.36084,0 5.92202,-0.47869 8.31548,0 7.18459,1.43692 30.4094,4.66564 37.79762,3.02381 4.05686,-0.90152 8.00644,-2.28039 12.09524,-3.02381 1.48751,-0.27045 3.02826,0.11596 4.53571,0 6.81819,-0.52447 13.69178,-0.77476 20.41071,-2.26785 2.93181,-0.65151 5.4318,-1.69112 8.31547,-2.26786 2.87462,-0.57492 5.10402,0.0469 8.31548,-0.75595 6.7791,-1.69477 13.40848,-4.17131 20.41073,-5.29167 4.01209,-0.64193 8.08738,-0.84393 12.09524,-1.5119 5.45549,-0.90926 10.5774,-3.35848 15.875,-4.53572 4.04333,-0.89852 8.7495,0.58595 12.85118,0 8.60176,-1.22882 14.81714,-7.58126 22.67858,-9.82738 4.09598,-1.17028 10.33491,0.5493 14.36309,0 7.92781,-1.08107 15.49445,-4.15737 23.43451,-5.29167 2.84015,-0.40573 7.98037,-0.046 10.58334,-0.75595 4.78861,-1.30598 8.94246,-4.35137 13.60715,-6.04762 18.3075,-6.65727 0.35266,0.14205 13.60715,-2.26785 3.05255,-0.55502 2.26168,-1.51191 4.5357,-1.51191"
       id="path26" />
    <path
       style="fill:none;stroke:#000000;stroke-width:0.264583px;stroke-linecap:butt;stroke-linejoin:miter;stroke-opacity:1"
       d="m -15.119047,-112.6369 -5.291667,-6.04762"
       id="path28" />
    <g
       inkscape:corner7="-1.3552369 : -0.021513558 : 0.25 : 1"
       inkscape:corner0="-0.69338269 : 0.17708566 : 0 : 1"
       inkscape:perspectiveID="#perspective13"
       style="fill-rule:evenodd;stroke:none;stroke-linejoin:round"
       id="g15"
       sodipodi:type="inkscape:box3d">
      <path
         points="-295.57741,507.65655 -295.57741,-51.40478 342.44643,380.10322 342.44643,-267.60715 "
         d="m 342.44643,-267.60715 -638.02384,775.2637 V -51.40478 l 638.02384,431.508 z"
         inkscape:box3dsidetype="3"
         style="fill:#8686bf;fill-rule:evenodd;stroke:none;stroke-linejoin:round"
         id="path21"
         sodipodi:type="inkscape:box3dside" />
      <path
         points="342.44643,380.10322 282.95923,276.08058 282.95923,-80.716109 342.44643,-267.60715 "
         d="M 342.44643,-267.60715 V 380.10322 L 282.95923,276.08058 V -80.716109 Z"
         inkscape:box3dsidetype="6"
         style="fill:#353564;fill-rule:evenodd;stroke:none;stroke-linejoin:round"
         id="path17"
         sodipodi:type="inkscape:box3dside" />
      <path
         points="-295.57741,507.65655 -1496.6234,1360.8662 282.95923,-80.716109 342.44643,-267.60715 "
         d="M 342.44643,-267.60715 -295.57741,507.65655 -1496.6234,1360.8662 282.95923,-80.716109 Z"
         inkscape:box3dsidetype="5"
         style="fill:#4d4d9f;fill-rule:evenodd;stroke:none;stroke-linejoin:round"
         id="path19"
         sodipodi:type="inkscape:box3dside" />
      <path
         points="-1496.6234,1360.8662 -1496.6234,-526.29711 282.95923,276.08058 282.95923,-80.716109 "
         d="M 282.95923,-80.716109 -1496.6234,1360.8662 V -526.29711 L 282.95923,276.08058 Z"
         inkscape:box3dsidetype="11"
         style="fill:#e9e9ff;fill-rule:evenodd;stroke:none;stroke-linejoin:round"
         id="path27"
         sodipodi:type="inkscape:box3dside" />
      <path
         points="-295.57741,-51.40478 -1496.6234,-526.29711 -1496.6234,1360.8662 -295.57741,507.65655 "
         d="M -295.57741,507.65655 V -51.40478 L -1496.6234,-526.29711 V 1360.8662 Z"
         inkscape:box3dsidetype="14"
         style="fill:#d7d7ff;fill-rule:evenodd;stroke:none;stroke-linejoin:round"
         id="path23"
         sodipodi:type="inkscape:box3dside" />
      <path
         points="-295.57741,-51.40478 -1496.6234,-526.29711 282.95923,276.08058 342.44643,380.10322 "
         d="M 342.44643,380.10322 -295.57741,-51.40478 -1496.6234,-526.29711 282.95923,276.08058 Z"
         inkscape:box3dsidetype="13"
         style="fill:#afafde;fill-rule:evenodd;stroke:none;stroke-linejoin:round"
         id="path25"
         sodipodi:type="inkscape:box3dside" />
    </g>
    <g
       inkscape:corner7="-2.780739 : 0.45275259 : 0.25 : 1"
       inkscape:corner0="1.3541973 : 0.66248817 : 0 : 1"
       inkscape:perspectiveID="#perspective13"
       style="fill-rule:evenodd;stroke:none;stroke-linejoin:round"
       id="g29"
       sodipodi:type="inkscape:box3d">
      <path
         points="-58.964285,492.73246 -58.964285,374.95238 44.601191,-22.790898 44.601191,-111.88096 "
         d="M 44.601191,-111.88096 -58.964285,492.73246 V 374.95238 L 44.601191,-22.790898 Z"
         inkscape:box3dsidetype="3"
         style="fill:#8686bf;fill-rule:evenodd;stroke:none;stroke-linejoin:round"
         id="path35"
         sodipodi:type="inkscape:box3dside" />
      <path
         points="-58.964285,374.95238 -102.89148,411.93654 60.47929,-6.3471645 44.601191,-22.790898 "
         d="M 44.601191,-22.790898 -58.964285,374.95238 -102.89148,411.93654 60.47929,-6.3471645 Z"
         inkscape:box3dsidetype="13"
         style="fill:#afafde;fill-rule:evenodd;stroke:none;stroke-linejoin:round"
         id="path39"
         sodipodi:type="inkscape:box3dside" />
      <path
         points="44.601191,-22.790898 60.47929,-6.3471645 60.47929,-86.884678 44.601191,-111.88096 "
         d="m 44.601191,-111.88096 v 89.090062 L 60.47929,-6.3471645 V -86.884678 Z"
         inkscape:box3dsidetype="6"
         style="fill:#353564;fill-rule:evenodd;stroke:none;stroke-linejoin:round"
         id="path31"
         sodipodi:type="inkscape:box3dside" />
      <path
         points="-58.964285,492.73246 -102.89148,548.95243 60.47929,-86.884678 44.601191,-111.88096 "
         d="M 44.601191,-111.88096 -58.964285,492.73246 -102.89148,548.95243 60.47929,-86.884678 Z"
         inkscape:box3dsidetype="5"
         style="fill:#4d4d9f;fill-rule:evenodd;stroke:none;stroke-linejoin:round"
         id="path33"
         sodipodi:type="inkscape:box3dside" />
      <path
         points="-58.964285,374.95238 -102.89148,411.93654 -102.89148,548.95243 -58.964285,492.73246 "
         d="M -58.964285,492.73246 V 374.95238 l -43.927195,36.98416 v 137.01589 z"
         inkscape:box3dsidetype="14"
         style="fill:#d7d7ff;fill-rule:evenodd;stroke:none;stroke-linejoin:round"
         id="path37"
         sodipodi:type="inkscape:box3dside" />
      <path
         points="-102.89148,548.95243 -102.89148,411.93654 60.47929,-6.3471645 60.47929,-86.884678 "
         d="M 60.47929,-86.884678 -102.89148,548.95243 V 411.93654 L 60.47929,-6.3471645 Z"
         inkscape:box3dsidetype="11"
         style="fill:#e9e9ff;fill-rule:evenodd;stroke:none;stroke-linejoin:round"
         id="path41"
         sodipodi:type="inkscape:box3dside" />
    </g>
    <g
       inkscape:corner7="-2.0602874 : -0.11352927 : 0.25 : 1"
       inkscape:corner0="-0.39346008 : -0.11196031 : 0 : 1"
       inkscape:perspectiveID="#perspective13"
       style="fill-rule:evenodd;stroke:none;stroke-linejoin:round"
       id="g43"
       sodipodi:type="inkscape:box3d">
      <path
         points="-99.029756,-3.7797507 -99.029756,-5.2595004 173.11309,417.28572 173.11309,414.69898 "
         d="M 173.11309,414.69898 -99.029756,-3.7797507 V -5.2595004 L 173.11309,417.28572 Z"
         inkscape:box3dsidetype="3"
         style="fill:#8686bf;fill-rule:evenodd;stroke:none;stroke-linejoin:round"
         id="path49"
         sodipodi:type="inkscape:box3dside" />
      <path
         points="173.11309,417.28572 183.87935,338.8347 183.87935,337.00296 173.11309,414.69898 "
         d="m 173.11309,414.69898 v 2.58674 l 10.76626,-78.45102 v -1.83174 z"
         inkscape:box3dsidetype="6"
         style="fill:#353564;fill-rule:evenodd;stroke:none;stroke-linejoin:round"
         id="path45"
         sodipodi:type="inkscape:box3dside" />
      <path
         points="-99.029756,-3.7797507 -194.37548,-50.763005 183.87935,337.00296 173.11309,414.69898 "
         d="M 173.11309,414.69898 -99.029756,-3.7797507 -194.37548,-50.763005 183.87935,337.00296 Z"
         inkscape:box3dsidetype="5"
         style="fill:#4d4d9f;fill-rule:evenodd;stroke:none;stroke-linejoin:round"
         id="path47"
         sodipodi:type="inkscape:box3dside" />
      <path
         points="-194.37548,-50.763005 -194.37548,-52.699305 183.87935,338.8347 183.87935,337.00296 "
         d="M 183.87935,337.00296 -194.37548,-50.763005 v -1.9363 L 183.87935,338.8347 Z"
         inkscape:box3dsidetype="11"
         style="fill:#e9e9ff;fill-rule:evenodd;stroke:none;stroke-linejoin:round"
         id="path55"
         sodipodi:type="inkscape:box3dside" />
      <path
         points="-99.029756,-5.2595004 -194.37548,-52.699305 -194.37548,-50.763005 -99.029756,-3.7797507 "
         d="M -99.029756,-3.7797507 V -5.2595004 L -194.37548,-52.699305 v 1.9363 z"
         inkscape:box3dsidetype="14"
         style="fill:#d7d7ff;fill-rule:evenodd;stroke:none;stroke-linejoin:round"
         id="path51"
         sodipodi:type="inkscape:box3dside" />
      <path
         points="-99.029756,-5.2595004 -194.37548,-52.699305 183.87935,338.8347 173.11309,417.28572 "
         d="M 173.11309,417.28572 -99.029756,-5.2595004 -194.37548,-52.699305 183.87935,338.8347 Z"
         inkscape:box3dsidetype="13"
         style="fill:#afafde;fill-rule:evenodd;stroke:none;stroke-linejoin:round"
         id="path53"
         sodipodi:type="inkscape:box3dside" />
    </g>
    <g
       inkscape:corner7="-0.7432576 : -0.023002222 : 0.25 : 1"
       inkscape:corner0="-0.70510055 : 0.13587219 : 0 : 1"
       inkscape:perspectiveID="#perspective13"
       style="fill-rule:evenodd;stroke:none;stroke-linejoin:round"
       id="g57"
       sodipodi:type="inkscape:box3d">
      <path
         points="408.97025,430.89286 310.80881,291.5751 310.80881,-21.945941 408.97025,-187.91575 "
         d="M 408.97025,-187.91575 V 430.89286 L 310.80881,291.5751 V -21.945941 Z"
         inkscape:box3dsidetype="14"
         style="fill:#d7d7ff;fill-rule:evenodd;stroke:none;stroke-linejoin:round"
         id="path65"
         sodipodi:type="inkscape:box3dside" />
      <path
         points="408.97025,430.89286 310.80881,291.5751 289.04416,281.55615 356.05357,394.35404 "
         d="M 356.05357,394.35404 408.97025,430.89286 310.80881,291.5751 289.04416,281.55615 Z"
         inkscape:box3dsidetype="13"
         style="fill:#afafde;fill-rule:evenodd;stroke:none;stroke-linejoin:round"
         id="path67"
         sodipodi:type="inkscape:box3dside" />
      <path
         points="310.80881,-21.945941 310.80881,291.5751 289.04416,281.55615 289.04416,-10.010318 "
         d="m 289.04416,-10.010318 21.76465,-11.935623 V 291.5751 l -21.76465,-10.01895 z"
         inkscape:box3dsidetype="11"
         style="fill:#e9e9ff;fill-rule:evenodd;stroke:none;stroke-linejoin:round"
         id="path69"
         sodipodi:type="inkscape:box3dside" />
      <path
         points="408.97025,-187.91575 310.80881,-21.945941 289.04416,-10.010318 356.05357,-144.3869 "
         d="m 356.05357,-144.3869 52.91668,-43.52885 -98.16144,165.969809 -21.76465,11.935623 z"
         inkscape:box3dsidetype="5"
         style="fill:#4d4d9f;fill-rule:evenodd;stroke:none;stroke-linejoin:round"
         id="path61"
         sodipodi:type="inkscape:box3dside" />
      <path
         points="356.05357,394.35404 289.04416,281.55615 289.04416,-10.010318 356.05357,-144.3869 "
         d="M 356.05357,-144.3869 V 394.35404 L 289.04416,281.55615 V -10.010318 Z"
         inkscape:box3dsidetype="6"
         style="fill:#353564;fill-rule:evenodd;stroke:none;stroke-linejoin:round"
         id="path59"
         sodipodi:type="inkscape:box3dside" />
      <path
         points="408.97025,-187.91575 408.97025,430.89286 356.05357,394.35404 356.05357,-144.3869 "
         d="m 356.05357,-144.3869 52.91668,-43.52885 v 618.80861 l -52.91668,-36.53882 z"
         inkscape:box3dsidetype="3"
         style="fill:#8686bf;fill-rule:evenodd;stroke:none;stroke-linejoin:round"
         id="path63"
         sodipodi:type="inkscape:box3dside" />
    </g>
    <g
       inkscape:corner7="-0.81843446 : 0.0074232655 : 0.25 : 1"
       inkscape:corner0="-0.75107949 : 0.12654535 : 0 : 1"
       inkscape:perspectiveID="#perspective13"
       style="fill-rule:evenodd;stroke:none;stroke-linejoin:round"
       id="g71"
       sodipodi:type="inkscape:box3d">
      <path
         points="578.30358,380.24405 364.95037,245.9979 364.95037,-30.02525 578.30358,-275.83904 "
         d="M 578.30358,-275.83904 V 380.24405 L 364.95037,245.9979 V -30.02525 Z"
         inkscape:box3dsidetype="14"
         style="fill:#d7d7ff;fill-rule:evenodd;stroke:none;stroke-linejoin:round"
         id="path79"
         sodipodi:type="inkscape:box3dside" />
      <path
         points="578.30358,380.24405 364.95037,245.9979 315.68156,232.83555 421.82142,317.53683 "
         d="M 421.82142,317.53683 578.30358,380.24405 364.95037,245.9979 315.68156,232.83555 Z"
         inkscape:box3dsidetype="13"
         style="fill:#afafde;fill-rule:evenodd;stroke:none;stroke-linejoin:round"
         id="path81"
         sodipodi:type="inkscape:box3dside" />
      <path
         points="364.95037,-30.02525 364.95037,245.9979 315.68156,232.83555 315.68156,-5.92409 "
         d="m 315.68156,-5.92409 49.26881,-24.10116 V 245.9979 l -49.26881,-13.16235 z"
         inkscape:box3dsidetype="11"
         style="fill:#e9e9ff;fill-rule:evenodd;stroke:none;stroke-linejoin:round"
         id="path83"
         sodipodi:type="inkscape:box3dside" />
      <path
         points="578.30358,-275.83904 364.95037,-30.02525 315.68156,-5.92409 421.82142,-161.01787 "
         d="M 421.82142,-161.01787 578.30358,-275.83904 364.95037,-30.02525 315.68156,-5.92409 Z"
         inkscape:box3dsidetype="5"
         style="fill:#4d4d9f;fill-rule:evenodd;stroke:none;stroke-linejoin:round"
         id="path75"
         sodipodi:type="inkscape:box3dside" />
      <path
         points="421.82142,317.53683 315.68156,232.83555 315.68156,-5.92409 421.82142,-161.01787 "
         d="m 421.82142,-161.01787 v 478.5547 L 315.68156,232.83555 V -5.92409 Z"
         inkscape:box3dsidetype="6"
         style="fill:#353564;fill-rule:evenodd;stroke:none;stroke-linejoin:round"
         id="path73"
         sodipodi:type="inkscape:box3dside" />
      <path
         points="578.30358,-275.83904 578.30358,380.24405 421.82142,317.53683 421.82142,-161.01787 "
         d="M 421.82142,-161.01787 578.30358,-275.83904 V 380.24405 L 421.82142,317.53683 Z"
         inkscape:box3dsidetype="3"
         style="fill:#8686bf;fill-rule:evenodd;stroke:none;stroke-linejoin:round"
         id="path77"
         sodipodi:type="inkscape:box3dside" />
    </g>
    <g
       inkscape:corner7="-0.82238153 : 0.033580945 : 0.25 : 1"
       inkscape:corner0="-0.78465482 : 0.10410667 : 0 : 1"
       inkscape:perspectiveID="#perspective13"
       style="fill-rule:evenodd;stroke:none;stroke-linejoin:round"
       id="g85"
       sodipodi:type="inkscape:box3d">
      <path
         points="591.15475,238.125 368.31899,185.72724 368.31899,20.800496 591.15475,-158.938 "
         d="M 591.15475,-158.938 V 238.125 L 368.31899,185.72724 V 20.800496 Z"
         inkscape:box3dsidetype="14"
         style="fill:#d7d7ff;fill-rule:evenodd;stroke:none;stroke-linejoin:round"
         id="path93"
         sodipodi:type="inkscape:box3dside" />
      <path
         points="591.15475,238.125 368.31899,185.72724 338.45844,182.70914 487.58929,222.42344 "
         d="M 487.58929,222.42344 591.15475,238.125 368.31899,185.72724 338.45844,182.70914 Z"
         inkscape:box3dsidetype="13"
         style="fill:#afafde;fill-rule:evenodd;stroke:none;stroke-linejoin:round"
         id="path95"
         sodipodi:type="inkscape:box3dside" />
      <path
         points="368.31899,20.800496 368.31899,185.72724 338.45844,182.70914 338.45844,31.153418 "
         d="M 338.45844,31.153418 368.31899,20.800496 V 185.72724 l -29.86055,-3.0181 z"
         inkscape:box3dsidetype="11"
         style="fill:#e9e9ff;fill-rule:evenodd;stroke:none;stroke-linejoin:round"
         id="path97"
         sodipodi:type="inkscape:box3dside" />
      <path
         points="591.15475,-158.938 368.31899,20.800496 338.45844,31.153418 487.58929,-105.07738 "
         d="M 487.58929,-105.07738 591.15475,-158.938 368.31899,20.800496 338.45844,31.153418 Z"
         inkscape:box3dsidetype="5"
         style="fill:#4d4d9f;fill-rule:evenodd;stroke:none;stroke-linejoin:round"
         id="path89"
         sodipodi:type="inkscape:box3dside" />
      <path
         points="487.58929,222.42344 338.45844,182.70914 338.45844,31.153418 487.58929,-105.07738 "
         d="M 487.58929,-105.07738 V 222.42344 L 338.45844,182.70914 V 31.153418 Z"
         inkscape:box3dsidetype="6"
         style="fill:#353564;fill-rule:evenodd;stroke:none;stroke-linejoin:round"
         id="path87"
         sodipodi:type="inkscape:box3dside" />
      <path
         points="591.15475,-158.938 591.15475,238.125 487.58929,222.42344 487.58929,-105.07738 "
         d="M 487.58929,-105.07738 591.15475,-158.938 V 238.125 L 487.58929,222.42344 Z"
         inkscape:box3dsidetype="3"
         style="fill:#8686bf;fill-rule:evenodd;stroke:none;stroke-linejoin:round"
         id="path91"
         sodipodi:type="inkscape:box3dside" />
    </g>
    <g
       inkscape:corner7="-0.81723995 : 0.052600395 : 0.25 : 1"
       inkscape:corner0="-0.76093349 : 0.081929089 : 0 : 1"
       inkscape:perspectiveID="#perspective13"
       style="fill-rule:evenodd;stroke:none;stroke-linejoin:round"
       id="g99"
       sodipodi:type="inkscape:box3d">
      <path
         points="574.52382,131.53571 363.94303,141.33577 363.94303,73.56451 574.52382,-28.940788 "
         d="M 574.52382,-28.940788 V 131.53571 l -210.58079,9.80006 V 73.56451 Z"
         inkscape:box3dsidetype="14"
         style="fill:#d7d7ff;fill-rule:evenodd;stroke:none;stroke-linejoin:round"
         id="path107"
         sodipodi:type="inkscape:box3dside" />
      <path
         points="363.94303,73.56451 363.94303,141.33577 322.0421,142.16059 322.0421,82.191869 "
         d="m 322.0421,82.191869 41.90093,-8.627359 v 67.77126 l -41.90093,0.82482 z"
         inkscape:box3dsidetype="11"
         style="fill:#e9e9ff;fill-rule:evenodd;stroke:none;stroke-linejoin:round"
         id="path111"
         sodipodi:type="inkscape:box3dside" />
      <path
         points="574.52382,-28.940788 363.94303,73.56451 322.0421,82.191869 439.20833,12.851192 "
         d="M 439.20833,12.851192 574.52382,-28.940788 363.94303,73.56451 322.0421,82.191869 Z"
         inkscape:box3dsidetype="5"
         style="fill:#4d4d9f;fill-rule:evenodd;stroke:none;stroke-linejoin:round"
         id="path103"
         sodipodi:type="inkscape:box3dside" />
      <path
         points="439.20833,135.53125 322.0421,142.16059 322.0421,82.191869 439.20833,12.851192 "
         d="M 439.20833,12.851192 V 135.53125 L 322.0421,142.16059 V 82.191869 Z"
         inkscape:box3dsidetype="6"
         style="fill:#353564;fill-rule:evenodd;stroke:none;stroke-linejoin:round"
         id="path101"
         sodipodi:type="inkscape:box3dside" />
      <path
         points="574.52382,-28.940788 574.52382,131.53571 439.20833,135.53125 439.20833,12.851192 "
         d="m 439.20833,12.851192 135.31549,-41.79198 V 131.53571 l -135.31549,3.99554 z"
         inkscape:box3dsidetype="3"
         style="fill:#8686bf;fill-rule:evenodd;stroke:none;stroke-linejoin:round"
         id="path105"
         sodipodi:type="inkscape:box3dside" />
      <path
         points="574.52382,131.53571 363.94303,141.33577 322.0421,142.16059 439.20833,135.53125 "
         d="m 439.20833,135.53125 135.31549,-3.99554 -210.58079,9.80006 -41.90093,0.82482 z"
         inkscape:box3dsidetype="13"
         style="fill:#afafde;fill-rule:evenodd;stroke:none;stroke-linejoin:round"
         id="path109"
         sodipodi:type="inkscape:box3dside" />
    </g>
    <g
       inkscape:corner7="-0.79392041 : 0.049412908 : 0.25 : 1"
       inkscape:corner0="-0.75717196 : 0.06683619 : 0 : 1"
       inkscape:perspectiveID="#perspective13"
       style="fill-rule:evenodd;stroke:none;stroke-linejoin:round"
       id="g113"
       sodipodi:type="inkscape:box3d">
      <path
         points="509.51189,148.92262 345.33447,148.69096 345.33447,110.48868 509.51189,64.376246 "
         d="M 509.51189,64.376246 V 148.92262 L 345.33447,148.69096 V 110.48868 Z"
         inkscape:box3dsidetype="14"
         style="fill:#d7d7ff;fill-rule:evenodd;stroke:none;stroke-linejoin:round"
         id="path121"
         sodipodi:type="inkscape:box3dside" />
      <path
         points="509.51189,148.92262 345.33447,148.69096 319.5841,148.67672 432.40477,148.85866 "
         d="m 432.40477,148.85866 77.10712,0.064 -164.17742,-0.23166 -25.75037,-0.0142 z"
         inkscape:box3dsidetype="13"
         style="fill:#afafde;fill-rule:evenodd;stroke:none;stroke-linejoin:round"
         id="path123"
         sodipodi:type="inkscape:box3dside" />
      <path
         points="345.33447,110.48868 345.33447,148.69096 319.5841,148.67672 319.5841,113.32305 "
         d="m 319.5841,113.32305 25.75037,-2.83437 v 38.20228 l -25.75037,-0.0142 z"
         inkscape:box3dsidetype="11"
         style="fill:#e9e9ff;fill-rule:evenodd;stroke:none;stroke-linejoin:round"
         id="path125"
         sodipodi:type="inkscape:box3dside" />
      <path
         points="509.51189,64.376246 345.33447,110.48868 319.5841,113.32305 432.40477,77.107139 "
         d="M 432.40477,77.107139 509.51189,64.376246 345.33447,110.48868 319.5841,113.32305 Z"
         inkscape:box3dsidetype="5"
         style="fill:#4d4d9f;fill-rule:evenodd;stroke:none;stroke-linejoin:round"
         id="path117"
         sodipodi:type="inkscape:box3dside" />
      <path
         points="432.40477,148.85866 319.5841,148.67672 319.5841,113.32305 432.40477,77.107139 "
         d="M 432.40477,77.107139 V 148.85866 L 319.5841,148.67672 v -35.35367 z"
         inkscape:box3dsidetype="6"
         style="fill:#353564;fill-rule:evenodd;stroke:none;stroke-linejoin:round"
         id="path115"
         sodipodi:type="inkscape:box3dside" />
      <path
         points="509.51189,64.376246 509.51189,148.92262 432.40477,148.85866 432.40477,77.107139 "
         d="m 432.40477,77.107139 77.10712,-12.730893 v 84.546374 l -77.10712,-0.064 z"
         inkscape:box3dsidetype="3"
         style="fill:#8686bf;fill-rule:evenodd;stroke:none;stroke-linejoin:round"
         id="path119"
         sodipodi:type="inkscape:box3dside" />
    </g>
    <g
       inkscape:corner7="-0.77341331 : 0.046663621 : 0.25 : 1"
       inkscape:corner0="-0.76577126 : 0.064628667 : 0 : 1"
       inkscape:perspectiveID="#perspective13"
       style="fill-rule:evenodd;stroke:none;stroke-linejoin:round"
       id="g127"
       sodipodi:type="inkscape:box3d">
      <path
         points="463.39881,161.01786 330.47504,154.45145 330.47504,116.75622 463.39881,81.732329 "
         d="M 463.39881,81.732329 V 161.01786 L 330.47504,154.45145 V 116.75622 Z"
         inkscape:box3dsidetype="14"
         style="fill:#d7d7ff;fill-rule:evenodd;stroke:none;stroke-linejoin:round"
         id="path135"
         sodipodi:type="inkscape:box3dside" />
      <path
         points="463.39881,161.01786 330.47504,154.45145 325.25951,154.35752 448.27976,160.60944 "
         d="m 448.27976,160.60944 15.11905,0.40842 -132.92377,-6.56641 -5.21553,-0.0939 z"
         inkscape:box3dsidetype="13"
         style="fill:#afafde;fill-rule:evenodd;stroke:none;stroke-linejoin:round"
         id="path137"
         sodipodi:type="inkscape:box3dside" />
      <path
         points="330.47504,116.75622 330.47504,154.45145 325.25951,154.35752 325.25951,117.25719 "
         d="m 325.25951,117.25719 5.21553,-0.50097 v 37.69523 l -5.21553,-0.0939 z"
         inkscape:box3dsidetype="11"
         style="fill:#e9e9ff;fill-rule:evenodd;stroke:none;stroke-linejoin:round"
         id="path139"
         sodipodi:type="inkscape:box3dside" />
      <path
         points="463.39881,81.732329 330.47504,116.75622 325.25951,117.25719 448.27976,83.91072 "
         d="m 448.27976,83.91072 15.11905,-2.178391 -132.92377,35.023891 -5.21553,0.50097 z"
         inkscape:box3dsidetype="5"
         style="fill:#4d4d9f;fill-rule:evenodd;stroke:none;stroke-linejoin:round"
         id="path131"
         sodipodi:type="inkscape:box3dside" />
      <path
         points="448.27976,160.60944 325.25951,154.35752 325.25951,117.25719 448.27976,83.91072 "
         d="m 448.27976,83.91072 v 76.69872 l -123.02025,-6.25192 v -37.10033 z"
         inkscape:box3dsidetype="6"
         style="fill:#353564;fill-rule:evenodd;stroke:none;stroke-linejoin:round"
         id="path129"
         sodipodi:type="inkscape:box3dside" />
      <path
         points="463.39881,81.732329 463.39881,161.01786 448.27976,160.60944 448.27976,83.91072 "
         d="m 448.27976,83.91072 15.11905,-2.178391 v 79.285531 l -15.11905,-0.40842 z"
         inkscape:box3dsidetype="3"
         style="fill:#8686bf;fill-rule:evenodd;stroke:none;stroke-linejoin:round"
         id="path133"
         sodipodi:type="inkscape:box3dside" />
    </g>
    <g
       inkscape:corner7="-0.77776377 : 0.042210113 : 0.25 : 1"
       inkscape:corner0="-0.77341331 : 0.05293408 : 0 : 1"
       inkscape:perspectiveID="#perspective13"
       style="fill-rule:evenodd;stroke:none;stroke-linejoin:round"
       id="g141"
       sodipodi:type="inkscape:box3d">
      <path
         points="472.47023,181.30243 333.51953,163.93695 333.51953,141.22805 472.47023,133.04762 "
         d="m 472.47023,133.04762 v 48.25481 l -138.9507,-17.36548 v -22.7089 z"
         inkscape:box3dsidetype="14"
         style="fill:#d7d7ff;fill-rule:evenodd;stroke:none;stroke-linejoin:round"
         id="path149"
         sodipodi:type="inkscape:box3dside" />
      <path
         points="472.47023,181.30243 333.51953,163.93695 330.47504,163.79604 463.39881,180.67262 "
         d="m 463.39881,180.67262 9.07142,0.62981 -138.9507,-17.36548 -3.04449,-0.14091 z"
         inkscape:box3dsidetype="13"
         style="fill:#afafde;fill-rule:evenodd;stroke:none;stroke-linejoin:round"
         id="path151"
         sodipodi:type="inkscape:box3dside" />
      <path
         points="333.51953,141.22805 333.51953,163.93695 330.47504,163.79604 330.47504,141.29443 "
         d="m 330.47504,141.29443 3.04449,-0.0664 v 22.7089 l -3.04449,-0.14091 z"
         inkscape:box3dsidetype="11"
         style="fill:#e9e9ff;fill-rule:evenodd;stroke:none;stroke-linejoin:round"
         id="path153"
         sodipodi:type="inkscape:box3dside" />
      <path
         points="472.47023,133.04762 333.51953,141.22805 330.47504,141.29443 463.39881,133.3443 "
         d="m 463.39881,133.3443 9.07142,-0.29668 -138.9507,8.18043 -3.04449,0.0664 z"
         inkscape:box3dsidetype="5"
         style="fill:#4d4d9f;fill-rule:evenodd;stroke:none;stroke-linejoin:round"
         id="path145"
         sodipodi:type="inkscape:box3dside" />
      <path
         points="463.39881,180.67262 330.47504,163.79604 330.47504,141.29443 463.39881,133.3443 "
         d="m 463.39881,133.3443 v 47.32832 L 330.47504,163.79604 v -22.50161 z"
         inkscape:box3dsidetype="6"
         style="fill:#353564;fill-rule:evenodd;stroke:none;stroke-linejoin:round"
         id="path143"
         sodipodi:type="inkscape:box3dside" />
      <path
         points="472.47023,133.04762 472.47023,181.30243 463.39881,180.67262 463.39881,133.3443 "
         d="m 463.39881,133.3443 9.07142,-0.29668 v 48.25481 l -9.07142,-0.62981 z"
         inkscape:box3dsidetype="3"
         style="fill:#8686bf;fill-rule:evenodd;stroke:none;stroke-linejoin:round"
         id="path147"
         sodipodi:type="inkscape:box3dside" />
    </g>
    <g
       inkscape:corner7="-0.77341331 : -0.00027695628 : 0.25 : 1"
       inkscape:corner0="-0.72164802 : 0.046663621 : 0 : 1"
       inkscape:perspectiveID="#perspective13"
       style="fill-rule:evenodd;stroke:none;stroke-linejoin:round"
       id="g155"
       sodipodi:type="inkscape:box3d">
      <path
         points="463.39881,368.18173 330.47504,252.94471 330.47504,154.45145 463.39881,161.01786 "
         d="M 463.39881,161.01786 V 368.18173 L 330.47504,252.94471 v -98.49326 z"
         inkscape:box3dsidetype="14"
         style="fill:#d7d7ff;fill-rule:evenodd;stroke:none;stroke-linejoin:round"
         id="path163"
         sodipodi:type="inkscape:box3dside" />
      <path
         points="463.39881,368.18173 330.47504,252.94471 298.09674,242.71174 377.22025,327.32738 "
         d="m 377.22025,327.32738 86.17856,40.85435 -132.92377,-115.23702 -32.3783,-10.23297 z"
         inkscape:box3dsidetype="13"
         style="fill:#afafde;fill-rule:evenodd;stroke:none;stroke-linejoin:round"
         id="path165"
         sodipodi:type="inkscape:box3dside" />
      <path
         points="330.47504,154.45145 330.47504,252.94471 298.09674,242.71174 298.09674,153.86836 "
         d="m 298.09674,153.86836 32.3783,0.58309 v 98.49326 l -32.3783,-10.23297 z"
         inkscape:box3dsidetype="11"
         style="fill:#e9e9ff;fill-rule:evenodd;stroke:none;stroke-linejoin:round"
         id="path167"
         sodipodi:type="inkscape:box3dside" />
      <path
         points="463.39881,161.01786 330.47504,154.45145 298.09674,153.86836 377.22025,158.6899 "
         d="m 377.22025,158.6899 86.17856,2.32796 -132.92377,-6.56641 -32.3783,-0.58309 z"
         inkscape:box3dsidetype="5"
         style="fill:#4d4d9f;fill-rule:evenodd;stroke:none;stroke-linejoin:round"
         id="path159"
         sodipodi:type="inkscape:box3dside" />
      <path
         points="377.22025,327.32738 298.09674,242.71174 298.09674,153.86836 377.22025,158.6899 "
         d="M 377.22025,158.6899 V 327.32738 L 298.09674,242.71174 V 153.86836 Z"
         inkscape:box3dsidetype="6"
         style="fill:#353564;fill-rule:evenodd;stroke:none;stroke-linejoin:round"
         id="path157"
         sodipodi:type="inkscape:box3dside" />
      <path
         points="463.39881,161.01786 463.39881,368.18173 377.22025,327.32738 377.22025,158.6899 "
         d="m 377.22025,158.6899 86.17856,2.32796 v 207.16387 l -86.17856,-40.85435 z"
         inkscape:box3dsidetype="3"
         style="fill:#8686bf;fill-rule:evenodd;stroke:none;stroke-linejoin:round"
         id="path161"
         sodipodi:type="inkscape:box3dside" />
    </g>
    <g
       inkscape:corner7="-0.66738633 : -0.026867072 : 0.25 : 1"
       inkscape:corner0="-0.66611144 : 0.021448843 : 0 : 1"
       inkscape:perspectiveID="#perspective13"
       style="fill-rule:evenodd;stroke:none;stroke-linejoin:round"
       id="g169"
       sodipodi:type="inkscape:box3d">
      <path
         points="315.68156,378.09691 270.33352,279.57669 270.33352,196.6471 315.68156,232.83555 "
         d="M 315.68156,232.83555 V 378.09691 L 270.33352,279.57669 V 196.6471 Z"
         inkscape:box3dsidetype="14"
         style="fill:#d7d7ff;fill-rule:evenodd;stroke:none;stroke-linejoin:round"
         id="path177"
         sodipodi:type="inkscape:box3dside" />
      <path
         points="315.68156,378.09691 270.33352,279.57669 269.74326,279.29049 314.47619,377.22024 "
         d="m 314.47619,377.22024 1.20537,0.87667 -45.34804,-98.52022 -0.59026,-0.2862 z"
         inkscape:box3dsidetype="13"
         style="fill:#afafde;fill-rule:evenodd;stroke:none;stroke-linejoin:round"
         id="path179"
         sodipodi:type="inkscape:box3dside" />
      <path
         points="270.33352,196.6471 270.33352,279.57669 269.74326,279.29049 269.74326,196.54197 "
         d="m 269.74326,196.54197 0.59026,0.10513 v 82.92959 l -0.59026,-0.2862 z"
         inkscape:box3dsidetype="11"
         style="fill:#e9e9ff;fill-rule:evenodd;stroke:none;stroke-linejoin:round"
         id="path181"
         sodipodi:type="inkscape:box3dside" />
      <path
         points="315.68156,232.83555 270.33352,196.6471 269.74326,196.54197 314.47619,232.51353 "
         d="m 314.47619,232.51353 1.20537,0.32202 -45.34804,-36.18845 -0.59026,-0.10513 z"
         inkscape:box3dsidetype="5"
         style="fill:#4d4d9f;fill-rule:evenodd;stroke:none;stroke-linejoin:round"
         id="path173"
         sodipodi:type="inkscape:box3dside" />
      <path
         points="314.47619,377.22024 269.74326,279.29049 269.74326,196.54197 314.47619,232.51353 "
         d="M 314.47619,232.51353 V 377.22024 L 269.74326,279.29049 V 196.54197 Z"
         inkscape:box3dsidetype="6"
         style="fill:#353564;fill-rule:evenodd;stroke:none;stroke-linejoin:round"
         id="path171"
         sodipodi:type="inkscape:box3dside" />
      <path
         points="315.68156,232.83555 315.68156,378.09691 314.47619,377.22024 314.47619,232.51353 "
         d="m 314.47619,232.51353 1.20537,0.32202 v 145.26136 l -1.20537,-0.87667 z"
         inkscape:box3dsidetype="3"
         style="fill:#8686bf;fill-rule:evenodd;stroke:none;stroke-linejoin:round"
         id="path175"
         sodipodi:type="inkscape:box3dside" />
    </g>
    <g
       inkscape:corner7="-0.62460097 : -0.098226224 : 0.25 : 1"
       inkscape:corner0="-0.60086884 : 0.0049778708 : 0 : 1"
       inkscape:perspectiveID="#perspective13"
       style="fill-rule:evenodd;stroke:none;stroke-linejoin:round"
       id="g183"
       sodipodi:type="inkscape:box3d">
      <path
         points="279.70238,542.01786 251.83922,384.71115 251.83922,219.68996 279.70238,267.09948 "
         d="M 279.70238,267.09948 V 542.01786 L 251.83922,384.71115 V 219.68996 Z"
         inkscape:box3dsidetype="14"
         style="fill:#d7d7ff;fill-rule:evenodd;stroke:none;stroke-linejoin:round"
         id="path191"
         sodipodi:type="inkscape:box3dside" />
      <path
         points="279.70238,542.01786 251.83922,384.71115 242.63202,376.07531 263.07142,518.61949 "
         d="m 263.07142,518.61949 16.63096,23.39837 -27.86316,-157.30671 -9.2072,-8.63584 z"
         inkscape:box3dsidetype="13"
         style="fill:#afafde;fill-rule:evenodd;stroke:none;stroke-linejoin:round"
         id="path193"
         sodipodi:type="inkscape:box3dside" />
      <path
         points="251.83922,219.68996 251.83922,384.71115 242.63202,376.07531 242.63202,217.08726 "
         d="m 242.63202,217.08726 9.2072,2.6027 v 165.02119 l -9.2072,-8.63584 z"
         inkscape:box3dsidetype="11"
         style="fill:#e9e9ff;fill-rule:evenodd;stroke:none;stroke-linejoin:round"
         id="path195"
         sodipodi:type="inkscape:box3dside" />
      <path
         points="279.70238,267.09948 251.83922,219.68996 242.63202,217.08726 263.07142,260.04762 "
         d="m 263.07142,260.04762 16.63096,7.05186 -27.86316,-47.40952 -9.2072,-2.6027 z"
         inkscape:box3dsidetype="5"
         style="fill:#4d4d9f;fill-rule:evenodd;stroke:none;stroke-linejoin:round"
         id="path187"
         sodipodi:type="inkscape:box3dside" />
      <path
         points="263.07142,518.61949 242.63202,376.07531 242.63202,217.08726 263.07142,260.04762 "
         d="M 263.07142,260.04762 V 518.61949 L 242.63202,376.07531 V 217.08726 Z"
         inkscape:box3dsidetype="6"
         style="fill:#353564;fill-rule:evenodd;stroke:none;stroke-linejoin:round"
         id="path185"
         sodipodi:type="inkscape:box3dside" />
      <path
         points="279.70238,267.09948 279.70238,542.01786 263.07142,518.61949 263.07142,260.04762 "
         d="m 263.07142,260.04762 16.63096,7.05186 v 274.91838 l -16.63096,-23.39837 z"
         inkscape:box3dsidetype="3"
         style="fill:#8686bf;fill-rule:evenodd;stroke:none;stroke-linejoin:round"
         id="path189"
         sodipodi:type="inkscape:box3dside" />
    </g>
    <g
       inkscape:corner7="-6.1443573 : -0.91665931 : 0.25 : 1"
       inkscape:corner0="-0.14260715 : -0.17641791 : 0 : 1"
       inkscape:perspectiveID="#perspective13"
       style="fill-rule:evenodd;stroke:none;stroke-linejoin:round"
       id="g197"
       sodipodi:type="inkscape:box3d">
      <path
         points="-20.410713,104.58433 -20.410713,-39.309517 122.46429,1275.3572 122.46429,411.99404 "
         d="M 122.46429,411.99404 -20.410713,104.58433 V -39.309517 L 122.46429,1275.3572 Z"
         inkscape:box3dsidetype="3"
         style="fill:#8686bf;fill-rule:evenodd;stroke:none;stroke-linejoin:round"
         id="path203"
         sodipodi:type="inkscape:box3dside" />
      <path
         points="122.46429,1275.3572 142.22595,1020.963 142.22595,352.50882 122.46429,411.99404 "
         d="M 122.46429,411.99404 V 1275.3572 L 142.22595,1020.963 V 352.50882 Z"
         inkscape:box3dsidetype="6"
         style="fill:#353564;fill-rule:evenodd;stroke:none;stroke-linejoin:round"
         id="path199"
         sodipodi:type="inkscape:box3dside" />
      <path
         points="-20.410713,104.58433 -32.179915,102.34115 142.22595,352.50882 122.46429,411.99404 "
         d="M 122.46429,411.99404 -20.410713,104.58433 -32.179915,102.34115 142.22595,352.50882 Z"
         inkscape:box3dsidetype="5"
         style="fill:#4d4d9f;fill-rule:evenodd;stroke:none;stroke-linejoin:round"
         id="path201"
         sodipodi:type="inkscape:box3dside" />
      <path
         points="-32.179915,102.34115 -32.179915,-48.902683 142.22595,1020.963 142.22595,352.50882 "
         d="M 142.22595,352.50882 -32.179915,102.34115 V -48.902683 L 142.22595,1020.963 Z"
         inkscape:box3dsidetype="11"
         style="fill:#e9e9ff;fill-rule:evenodd;stroke:none;stroke-linejoin:round"
         id="path209"
         sodipodi:type="inkscape:box3dside" />
      <path
         points="-20.410713,-39.309517 -32.179915,-48.902683 -32.179915,102.34115 -20.410713,104.58433 "
         d="M -20.410713,104.58433 V -39.309517 l -11.769202,-9.593166 V 102.34115 Z"
         inkscape:box3dsidetype="14"
         style="fill:#d7d7ff;fill-rule:evenodd;stroke:none;stroke-linejoin:round"
         id="path205"
         sodipodi:type="inkscape:box3dside" />
      <path
         points="-20.410713,-39.309517 -32.179915,-48.902683 142.22595,1020.963 122.46429,1275.3572 "
         d="M 122.46429,1275.3572 -20.410713,-39.309517 -32.179915,-48.902683 142.22595,1020.963 Z"
         inkscape:box3dsidetype="13"
         style="fill:#afafde;fill-rule:evenodd;stroke:none;stroke-linejoin:round"
         id="path207"
         sodipodi:type="inkscape:box3dside" />
    </g>
    <g
       inkscape:corner7="-4.2629049 : -0.10111194 : 0.25 : 1"
       inkscape:corner0="-0.092172281 : -0.023628763 : 0 : 1"
       inkscape:perspectiveID="#perspective13"
       style="fill-rule:evenodd;stroke:none;stroke-linejoin:round"
       id="g211"
       sodipodi:type="inkscape:box3d">
      <path
         points="-32.179915,126.08784 -32.179915,102.34115 115.66071,314.40366 115.66071,229.05357 "
         d="M 115.66071,229.05357 -32.179915,126.08784 V 102.34115 L 115.66071,314.40366 Z"
         inkscape:box3dsidetype="3"
         style="fill:#8686bf;fill-rule:evenodd;stroke:none;stroke-linejoin:round"
         id="path217"
         sodipodi:type="inkscape:box3dside" />
      <path
         points="115.66071,314.40366 136.0306,278.58148 136.0306,211.66032 115.66071,229.05357 "
         d="m 115.66071,229.05357 v 85.35009 l 20.36989,-35.82218 v -66.92116 z"
         inkscape:box3dsidetype="6"
         style="fill:#353564;fill-rule:evenodd;stroke:none;stroke-linejoin:round"
         id="path213"
         sodipodi:type="inkscape:box3dside" />
      <path
         points="-32.179915,126.08784 -52.275133,124.22816 136.0306,211.66032 115.66071,229.05357 "
         d="M 115.66071,229.05357 -32.179915,126.08784 -52.275133,124.22816 136.0306,211.66032 Z"
         inkscape:box3dsidetype="5"
         style="fill:#4d4d9f;fill-rule:evenodd;stroke:none;stroke-linejoin:round"
         id="path215"
         sodipodi:type="inkscape:box3dside" />
      <path
         points="-52.275133,124.22816 -52.275133,98.51106 136.0306,278.58148 136.0306,211.66032 "
         d="M 136.0306,211.66032 -52.275133,124.22816 V 98.51106 L 136.0306,278.58148 Z"
         inkscape:box3dsidetype="11"
         style="fill:#e9e9ff;fill-rule:evenodd;stroke:none;stroke-linejoin:round"
         id="path223"
         sodipodi:type="inkscape:box3dside" />
      <path
         points="-32.179915,102.34115 -52.275133,98.51106 -52.275133,124.22816 -32.179915,126.08784 "
         d="m -32.179915,126.08784 v -23.74669 l -20.095218,-3.83009 v 25.7171 z"
         inkscape:box3dsidetype="14"
         style="fill:#d7d7ff;fill-rule:evenodd;stroke:none;stroke-linejoin:round"
         id="path219"
         sodipodi:type="inkscape:box3dside" />
      <path
         points="-32.179915,102.34115 -52.275133,98.51106 136.0306,278.58148 115.66071,314.40366 "
         d="M 115.66071,314.40366 -32.179915,102.34115 -52.275133,98.51106 136.0306,278.58148 Z"
         inkscape:box3dsidetype="13"
         style="fill:#afafde;fill-rule:evenodd;stroke:none;stroke-linejoin:round"
         id="path221"
         sodipodi:type="inkscape:box3dside" />
    </g>
    <g
       inkscape:corner7="-2.8519685 : 0.16368268 : 0.25 : 1"
       inkscape:corner0="5.3135291 : 0.67205914 : 0 : 1"
       inkscape:perspectiveID="#perspective13"
       style="fill-rule:evenodd;stroke:none;stroke-linejoin:round"
       id="g225"
       sodipodi:type="inkscape:box3d">
      <path
         points="-56.69643,484.66076 -56.69643,210.15477 16.630952,130.41461 16.630952,49.892852 "
         d="M 16.630952,49.892852 -56.69643,484.66076 V 210.15477 l 73.327382,-79.74016 z"
         inkscape:box3dsidetype="3"
         style="fill:#8686bf;fill-rule:evenodd;stroke:none;stroke-linejoin:round"
         id="path231"
         sodipodi:type="inkscape:box3dside" />
      <path
         points="-56.69643,210.15477 -98.316542,219.77648 23.996238,131.10347 16.630952,130.41461 "
         d="m 16.630952,130.41461 -73.327382,79.74016 -41.620112,9.62171 122.31278,-88.67301 z"
         inkscape:box3dsidetype="13"
         style="fill:#afafde;fill-rule:evenodd;stroke:none;stroke-linejoin:round"
         id="path235"
         sodipodi:type="inkscape:box3dside" />
      <path
         points="16.630952,130.41461 23.996238,131.10347 23.996238,53.648726 16.630952,49.892852 "
         d="m 16.630952,49.892852 v 80.521758 l 7.365286,0.68886 V 53.648726 Z"
         inkscape:box3dsidetype="6"
         style="fill:#353564;fill-rule:evenodd;stroke:none;stroke-linejoin:round"
         id="path227"
         sodipodi:type="inkscape:box3dside" />
      <path
         points="-56.69643,484.66076 -98.316542,537.12133 23.996238,53.648726 16.630952,49.892852 "
         d="M 16.630952,49.892852 -56.69643,484.66076 -98.316542,537.12133 23.996238,53.648726 Z"
         inkscape:box3dsidetype="5"
         style="fill:#4d4d9f;fill-rule:evenodd;stroke:none;stroke-linejoin:round"
         id="path229"
         sodipodi:type="inkscape:box3dside" />
      <path
         points="-56.69643,210.15477 -98.316542,219.77648 -98.316542,537.12133 -56.69643,484.66076 "
         d="M -56.69643,484.66076 V 210.15477 l -41.620112,9.62171 v 317.34485 z"
         inkscape:box3dsidetype="14"
         style="fill:#d7d7ff;fill-rule:evenodd;stroke:none;stroke-linejoin:round"
         id="path233"
         sodipodi:type="inkscape:box3dside" />
      <path
         points="-98.316542,537.12133 -98.316542,219.77648 23.996238,131.10347 23.996238,53.648726 "
         d="M 23.996238,53.648726 -98.316542,537.12133 V 219.77648 l 122.31278,-88.67301 z"
         inkscape:box3dsidetype="11"
         style="fill:#e9e9ff;fill-rule:evenodd;stroke:none;stroke-linejoin:round"
         id="path237"
         sodipodi:type="inkscape:box3dside" />
    </g>
    <g
       inkscape:corner7="-0.5604505 : 0.0034598071 : 0.25 : 1"
       inkscape:corner0="-0.17812047 : 0.041697041 : 0 : 1"
       inkscape:perspectiveID="#perspective13"
       style="fill-rule:evenodd;stroke:none;stroke-linejoin:round"
       id="g239"
       sodipodi:type="inkscape:box3d">
      <path
         points="238.88095,253.24405 228.41,215.26851 228.41,159.81603 238.88095,166.25218 "
         d="m 238.88095,166.25218 v 86.99187 L 228.41,215.26851 v -55.45248 z"
         inkscape:box3dsidetype="14"
         style="fill:#d7d7ff;fill-rule:evenodd;stroke:none;stroke-linejoin:round"
         id="path247"
         sodipodi:type="inkscape:box3dside" />
      <path
         points="238.88095,253.24405 228.41,215.26851 146.93816,191.45277 127.75595,204.51818 "
         d="m 127.75595,204.51818 111.125,48.72587 L 228.41,215.26851 146.93816,191.45277 Z"
         inkscape:box3dsidetype="13"
         style="fill:#afafde;fill-rule:evenodd;stroke:none;stroke-linejoin:round"
         id="path249"
         sodipodi:type="inkscape:box3dside" />
      <path
         points="228.41,159.81603 228.41,215.26851 146.93816,191.45277 146.93816,155.7797 "
         d="m 146.93816,155.7797 81.47184,4.03633 v 55.45248 l -81.47184,-23.81574 z"
         inkscape:box3dsidetype="11"
         style="fill:#e9e9ff;fill-rule:evenodd;stroke:none;stroke-linejoin:round"
         id="path251"
         sodipodi:type="inkscape:box3dside" />
      <path
         points="238.88095,166.25218 228.41,159.81603 146.93816,155.7797 127.75595,157.99405 "
         d="m 127.75595,157.99405 111.125,8.25813 -10.47095,-6.43615 -81.47184,-4.03633 z"
         inkscape:box3dsidetype="5"
         style="fill:#4d4d9f;fill-rule:evenodd;stroke:none;stroke-linejoin:round"
         id="path243"
         sodipodi:type="inkscape:box3dside" />
      <path
         points="127.75595,204.51818 146.93816,191.45277 146.93816,155.7797 127.75595,157.99405 "
         d="m 127.75595,157.99405 v 46.52413 l 19.18221,-13.06541 V 155.7797 Z"
         inkscape:box3dsidetype="6"
         style="fill:#353564;fill-rule:evenodd;stroke:none;stroke-linejoin:round"
         id="path241"
         sodipodi:type="inkscape:box3dside" />
      <path
         points="238.88095,166.25218 238.88095,253.24405 127.75595,204.51818 127.75595,157.99405 "
         d="m 127.75595,157.99405 111.125,8.25813 v 86.99187 l -111.125,-48.72587 z"
         inkscape:box3dsidetype="3"
         style="fill:#8686bf;fill-rule:evenodd;stroke:none;stroke-linejoin:round"
         id="path245"
         sodipodi:type="inkscape:box3dside" />
    </g>
    <g
       inkscape:corner7="-1.7015032 : 0.047675253 : 0.25 : 1"
       inkscape:corner0="-0.38267716 : 0.070239112 : 0 : 1"
       inkscape:perspectiveID="#perspective13"
       style="fill-rule:evenodd;stroke:none;stroke-linejoin:round"
       id="g253"
       sodipodi:type="inkscape:box3d">
      <path
         points="-149.67858,178.06382 -149.67858,145.89881 170.08929,151.45591 170.08929,114.90476 "
         d="m 170.08929,114.90476 -319.76787,63.15906 v -32.16501 l 319.76787,5.5571 z"
         inkscape:box3dsidetype="3"
         style="fill:#8686bf;fill-rule:evenodd;stroke:none;stroke-linejoin:round"
         id="path259"
         sodipodi:type="inkscape:box3dside" />
      <path
         points="170.08929,151.45591 181.59328,150.60389 181.59328,124.58836 170.08929,114.90476 "
         d="m 170.08929,114.90476 v 36.55115 l 11.50399,-0.85202 v -26.01553 z"
         inkscape:box3dsidetype="6"
         style="fill:#353564;fill-rule:evenodd;stroke:none;stroke-linejoin:round"
         id="path255"
         sodipodi:type="inkscape:box3dside" />
      <path
         points="-149.67858,178.06382 -348.83474,194.43348 181.59328,124.58836 170.08929,114.90476 "
         d="m 170.08929,114.90476 -319.76787,63.15906 -199.15616,16.36966 530.42802,-69.84512 z"
         inkscape:box3dsidetype="5"
         style="fill:#4d4d9f;fill-rule:evenodd;stroke:none;stroke-linejoin:round"
         id="path257"
         sodipodi:type="inkscape:box3dside" />
      <path
         points="-348.83474,194.43348 -348.83474,144.45851 181.59328,150.60389 181.59328,124.58836 "
         d="m 181.59328,124.58836 -530.42802,69.84512 v -49.97497 l 530.42802,6.14538 z"
         inkscape:box3dsidetype="11"
         style="fill:#e9e9ff;fill-rule:evenodd;stroke:none;stroke-linejoin:round"
         id="path265"
         sodipodi:type="inkscape:box3dside" />
      <path
         points="-149.67858,145.89881 -348.83474,144.45851 -348.83474,194.43348 -149.67858,178.06382 "
         d="m -149.67858,178.06382 v -32.16501 l -199.15616,-1.4403 v 49.97497 z"
         inkscape:box3dsidetype="14"
         style="fill:#d7d7ff;fill-rule:evenodd;stroke:none;stroke-linejoin:round"
         id="path261"
         sodipodi:type="inkscape:box3dside" />
      <path
         points="-149.67858,145.89881 -348.83474,144.45851 181.59328,150.60389 170.08929,151.45591 "
         d="m 170.08929,151.45591 -319.76787,-5.5571 -199.15616,-1.4403 530.42802,6.14538 z"
         inkscape:box3dsidetype="13"
         style="fill:#afafde;fill-rule:evenodd;stroke:none;stroke-linejoin:round"
         id="path263"
         sodipodi:type="inkscape:box3dside" />
    </g>
    <g
       inkscape:corner7="-2.0522549 : -0.016078032 : 0.25 : 1"
       inkscape:corner0="0.052254856 : 0.20575985 : 0 : 1"
       inkscape:perspectiveID="#perspective13"
       style="fill-rule:evenodd;stroke:none;stroke-linejoin:round"
       id="g267"
       sodipodi:type="inkscape:box3d">
      <path
         points="-99.78571,297 -99.78571,86.178574 99.785714,210.82144 99.785714,4.7012132e-06 "
         d="M 99.785714,4.7012132e-6 -99.78571,297 V 86.178574 L 99.785714,210.82144 Z"
         inkscape:box3dsidetype="3"
         style="fill:#8686bf;fill-rule:evenodd;stroke:none;stroke-linejoin:round"
         id="path273"
         sodipodi:type="inkscape:box3dside" />
      <path
         points="99.785714,210.82144 120.94407,198.8573 120.94407,28.508249 99.785714,4.7012132e-06 "
         d="M 99.785714,4.7012132e-6 V 210.82144 L 120.94407,198.8573 V 28.508249 Z"
         inkscape:box3dsidetype="6"
         style="fill:#353564;fill-rule:evenodd;stroke:none;stroke-linejoin:round"
         id="path269"
         sodipodi:type="inkscape:box3dside" />
      <path
         points="-99.78571,297 -196.32165,343.27581 120.94407,28.508249 99.785714,4.7012132e-06 "
         d="M 99.785714,4.7012132e-6 -99.78571,297 -196.32165,343.27581 120.94407,28.508249 Z"
         inkscape:box3dsidetype="5"
         style="fill:#4d4d9f;fill-rule:evenodd;stroke:none;stroke-linejoin:round"
         id="path271"
         sodipodi:type="inkscape:box3dside" />
      <path
         points="-196.32165,343.27581 -196.32165,66.757867 120.94407,198.8573 120.94407,28.508249 "
         d="M 120.94407,28.508249 -196.32165,343.27581 V 66.757867 L 120.94407,198.8573 Z"
         inkscape:box3dsidetype="11"
         style="fill:#e9e9ff;fill-rule:evenodd;stroke:none;stroke-linejoin:round"
         id="path279"
         sodipodi:type="inkscape:box3dside" />
      <path
         points="-99.78571,86.178574 -196.32165,66.757867 -196.32165,343.27581 -99.78571,297 "
         d="M -99.78571,297 V 86.178574 L -196.32165,66.757867 V 343.27581 Z"
         inkscape:box3dsidetype="14"
         style="fill:#d7d7ff;fill-rule:evenodd;stroke:none;stroke-linejoin:round"
         id="path275"
         sodipodi:type="inkscape:box3dside" />
      <path
         points="-99.78571,86.178574 -196.32165,66.757867 120.94407,198.8573 99.785714,210.82144 "
         d="M 99.785714,210.82144 -99.78571,86.178574 -196.32165,66.757867 120.94407,198.8573 Z"
         inkscape:box3dsidetype="13"
         style="fill:#afafde;fill-rule:evenodd;stroke:none;stroke-linejoin:round"
         id="path277"
         sodipodi:type="inkscape:box3dside" />
    </g>
    <g
       inkscape:corner7="-0.59267554 : 0.038242814 : 0.25 : 1"
       inkscape:corner0="-0.27278723 : 0.1300042 : 0 : 1"
       inkscape:perspectiveID="#perspective13"
       style="fill-rule:evenodd;stroke:none;stroke-linejoin:round"
       id="g281"
       sodipodi:type="inkscape:box3d">
      <path
         points="257.77976,176.1369 239.6077,165.62577 239.6077,26.027462 257.77976,-49.141448 "
         d="M 257.77976,-49.141448 V 176.1369 L 239.6077,165.62577 V 26.027462 Z"
         inkscape:box3dsidetype="14"
         style="fill:#d7d7ff;fill-rule:evenodd;stroke:none;stroke-linejoin:round"
         id="path289"
         sodipodi:type="inkscape:box3dside" />
      <path
         points="257.77976,176.1369 239.6077,165.62577 161.17268,160.01969 144.38691,163.97991 "
         d="M 144.38691,163.97991 257.77976,176.1369 239.6077,165.62577 161.17268,160.01969 Z"
         inkscape:box3dsidetype="13"
         style="fill:#afafde;fill-rule:evenodd;stroke:none;stroke-linejoin:round"
         id="path291"
         sodipodi:type="inkscape:box3dside" />
      <path
         points="239.6077,26.027462 239.6077,165.62577 161.17268,160.01969 161.17268,66.118562 "
         d="m 161.17268,66.118562 78.43502,-40.0911 V 165.62577 l -78.43502,-5.60608 z"
         inkscape:box3dsidetype="11"
         style="fill:#e9e9ff;fill-rule:evenodd;stroke:none;stroke-linejoin:round"
         id="path293"
         sodipodi:type="inkscape:box3dside" />
      <path
         points="257.77976,-49.141448 239.6077,26.027462 161.17268,66.118562 144.38691,37.797606 "
         d="m 144.38691,37.797606 113.39285,-86.939054 -18.17206,75.16891 -78.43502,40.0911 z"
         inkscape:box3dsidetype="5"
         style="fill:#4d4d9f;fill-rule:evenodd;stroke:none;stroke-linejoin:round"
         id="path285"
         sodipodi:type="inkscape:box3dside" />
      <path
         points="144.38691,163.97991 161.17268,160.01969 161.17268,66.118562 144.38691,37.797606 "
         d="M 144.38691,37.797606 V 163.97991 l 16.78577,-3.96022 V 66.118562 Z"
         inkscape:box3dsidetype="6"
         style="fill:#353564;fill-rule:evenodd;stroke:none;stroke-linejoin:round"
         id="path283"
         sodipodi:type="inkscape:box3dside" />
      <path
         points="257.77976,-49.141448 257.77976,176.1369 144.38691,163.97991 144.38691,37.797606 "
         d="M 144.38691,37.797606 257.77976,-49.141448 V 176.1369 L 144.38691,163.97991 Z"
         inkscape:box3dsidetype="3"
         style="fill:#8686bf;fill-rule:evenodd;stroke:none;stroke-linejoin:round"
         id="path287"
         sodipodi:type="inkscape:box3dside" />
    </g>
    <g
       inkscape:corner7="-10.259843 : -0.048984151 : 0.25 : 1"
       inkscape:corner0="-0.5672459 : 2.4824135 : 0 : 1"
       inkscape:perspectiveID="#perspective13"
       style="fill-rule:evenodd;stroke:none;stroke-linejoin:round"
       id="g295"
       sodipodi:type="inkscape:box3d">
      <path
         points="-11.339285,411.23809 -11.339285,137.86439 242.63202,376.07531 242.63202,-5473.4304 "
         d="M 242.63202,-5473.4304 -11.339285,411.23809 V 137.86439 L 242.63202,376.07531 Z"
         inkscape:box3dsidetype="3"
         style="fill:#8686bf;fill-rule:evenodd;stroke:none;stroke-linejoin:round"
         id="path301"
         sodipodi:type="inkscape:box3dside" />
      <path
         points="242.63202,376.07531 230.68335,292.74542 230.68335,-3414.8816 242.63202,-5473.4304 "
         d="M 242.63202,-5473.4304 V 376.07531 L 230.68335,292.74542 V -3414.8816 Z"
         inkscape:box3dsidetype="6"
         style="fill:#353564;fill-rule:evenodd;stroke:none;stroke-linejoin:round"
         id="path297"
         sodipodi:type="inkscape:box3dside" />
      <path
         points="-11.339285,411.23809 -17.480882,418.5284 230.68335,-3414.8816 242.63202,-5473.4304 "
         d="m 242.63202,-5473.4304 -253.971305,5884.66849 -6.141597,7.29031 248.164232,-3833.41 z"
         inkscape:box3dsidetype="5"
         style="fill:#4d4d9f;fill-rule:evenodd;stroke:none;stroke-linejoin:round"
         id="path299"
         sodipodi:type="inkscape:box3dside" />
      <path
         points="-17.480882,418.5284 -17.480882,137.56928 230.68335,292.74542 230.68335,-3414.8816 "
         d="M 230.68335,-3414.8816 -17.480882,418.5284 V 137.56928 L 230.68335,292.74542 Z"
         inkscape:box3dsidetype="11"
         style="fill:#e9e9ff;fill-rule:evenodd;stroke:none;stroke-linejoin:round"
         id="path307"
         sodipodi:type="inkscape:box3dside" />
      <path
         points="-11.339285,137.86439 -17.480882,137.56928 -17.480882,418.5284 -11.339285,411.23809 "
         d="m -11.339285,411.23809 v -273.3737 l -6.141597,-0.29511 V 418.5284 Z"
         inkscape:box3dsidetype="14"
         style="fill:#d7d7ff;fill-rule:evenodd;stroke:none;stroke-linejoin:round"
         id="path303"
         sodipodi:type="inkscape:box3dside" />
      <path
         points="-11.339285,137.86439 -17.480882,137.56928 230.68335,292.74542 242.63202,376.07531 "
         d="M 242.63202,376.07531 -11.339285,137.86439 -17.480882,137.56928 230.68335,292.74542 Z"
         inkscape:box3dsidetype="13"
         style="fill:#afafde;fill-rule:evenodd;stroke:none;stroke-linejoin:round"
         id="path305"
         sodipodi:type="inkscape:box3dside" />
    </g>
    <path
       d="m -211.66666,-58.964287 c 30.70082,25.697732 -19.49333,54.0624388 -42.71132,51.0267723 -62.91931,-8.2264683 -79.84978,-86.3816393 -59.34222,-136.4494153 36.68321,-89.5595 150.77765,-109.7914 230.187505,-67.65767 C 33.004457,-150.21166 56.992916,3.9683758 -7.5595683,111.88099 -93.597877,255.71154 -289.10131,283.47282 -425.22326,196.16957 -596.51883,86.307347 -628.05189,-151.03971 -517.82729,-315.23221 -384.33053,-514.09133 -104.87253,-549.3962 87.312586,-416.15169 313.7961,-259.12765 352.87379,62.597085 196.54752,282.72628 16.062654,536.87414 -348.02769,579.72596 -596.06854,400.27666 -877.90831,196.37497 -924.53557,-210.14776 -721.93438,-486.07749 -494.64646,-795.62895 -45.644122,-846.03283 258.15787,-620.25878 598.34441,-367.44512 651.79728,119.0056 400.65461,453.57156"
       sodipodi:t0="0"
       sodipodi:argument="-18.152636"
       sodipodi:radius="798.51758"
       sodipodi:revolution="3"
       sodipodi:expansion="1"
       sodipodi:cy="-58.964287"
       sodipodi:cx="-211.66666"
       id="path339"
       style="fill:none;fill-rule:evenodd;stroke:#000000;stroke-width:0.264583"
       sodipodi:type="spiral" />
    <path
       d="m 338.45844,182.70914 c -14.61983,-3.89234 -1.96612,-21.62758 6.46932,-24.29912 22.8595,-7.2397 41.14856,16.81591 42.12891,37.23776 1.75361,36.52988 -34.08055,61.69369 -68.0062,59.9587 -49.78725,-2.54616 -82.64437,-51.50589 -77.7885,-98.77462 C 247.73408,93.830062 310.24062,53.076222 370.80504,61.213559 447.01917,71.453567 495.75252,147.68522 484.25313,221.52506 470.32582,310.955 380.27752,367.71061 293.17319,352.80295 190.52375,335.23478 125.72065,231.31666 144.06551,130.95457 165.24538,15.082574 283.06698,-57.78428 396.68232,-35.982903 525.77928,-11.210793 606.72101,120.53694 581.44959,247.40234 553.09888,389.72615 407.40904,478.7507 267.29591,449.99941 111.74379,418.08003 14.630508,258.43637 46.869049,105.07729"
       sodipodi:t0="0"
       sodipodi:argument="-21.730947"
       sodipodi:radius="301.7467"
       sodipodi:revolution="3"
       sodipodi:expansion="1"
       sodipodi:cy="182.70914"
       sodipodi:cx="338.45844"
       id="path341"
       style="fill:none;fill-rule:evenodd;stroke:#000000;stroke-width:0.264583"
       sodipodi:type="spiral" />
    <path
       d="m -58.208332,67.279762 c 24.257449,14.137524 -7.08933,39.673508 -23.497494,40.317478 -44.465114,1.7451 -65.399704,-50.2805 -57.137454,-87.312466 14.77922,-66.241499 91.258163,-93.703206 151.127431,-73.957439 C 100.14471,-24.694959 134.93787,79.049735 103.06157,161.26974 60.575484,270.85607 -71.288691,313.13813 -175.6958,268.86714 -307.0815,213.15662 -356.91317,52.813243 -300.11319,-73.705203 -231.32079,-226.93599 -42.313416,-284.3489 106.27413,-214.94257 281.37941,-133.14961 346.39263,84.629327 264.33147,255.25972 169.58862,452.25925 -77.030081,524.88538 -269.68578,430.13704 -488.59343,322.47797 -568.84125,46.9735 -461.38309,-167.69518 -340.83128,-408.521 -36.408541,-496.39691 200.2641,-376.21247 463.0156,-242.78496 558.52443,90.57988 425.60138,349.24969"
       sodipodi:t0="0"
       sodipodi:argument="-18.321871"
       sodipodi:radius="559.98114"
       sodipodi:revolution="3"
       sodipodi:expansion="1"
       sodipodi:cy="67.279762"
       sodipodi:cx="-58.208332"
       id="path343"
       style="fill:none;fill-rule:evenodd;stroke:#000000;stroke-width:0.264583"
       sodipodi:type="spiral" />
    <path
       d="m 459.61902,419.55356 c -33.20237,-23.651 15.50019,-56.4247 39.30951,-55.18453 64.52179,3.36081 87.90607,81.35341 71.05954,133.80356 -30.13451,93.82102 -144.34723,123.4068 -228.2976,86.93454 C 218.48992,531.58263 181.91184,376.97696 238.88092,262.31549 314.81175,109.4898 511.06559,65.804733 656.1666,143.63094 838.76142,241.56728 889.59366,479.99743 790.72616,655.41066 670.98438,867.85958 390.10655,925.86024 184.4524,805.84523 -57.903886,664.41168 -123.08635,340.92811 18.142827,105.07743 181.1975,-167.22152 547.38708,-239.59494 813.40466,-77.107158 1115.6708,107.52179 1195.2418,516.48505 1011.4643,812.64872 805.29367,1144.8996 353.50888,1231.6732 27.21434,1026.5833 -338.15855,796.9311 -430.99701,307.37428 -202.59527,-52.160637"
       sodipodi:t0="0"
       sodipodi:argument="-21.372196"
       sodipodi:radius="813.04492"
       sodipodi:revolution="3"
       sodipodi:expansion="1"
       sodipodi:cy="419.55356"
       sodipodi:cx="459.61902"
       id="path345"
       style="fill:none;fill-rule:evenodd;stroke:#000000;stroke-width:0.264583"
       sodipodi:type="spiral" />
    <path
       d="m -233.58928,-43.089287 c 42.18521,7.428805 10.79881,60.529928 -12.34716,70.11459 -62.72416,25.973842 -120.15672,-37.440726 -127.88202,-94.808914 -13.81875,-102.618229 81.15123,-182.303899 177.27067,-185.649449 C -55.488654,-258.34278 49.086286,-128.21647 46.869082,6.2993622 43.913898,185.58781 -122.5076,315.72812 -295.32509,307.48366 -512.79826,297.10886 -668.78078,93.909334 -654.27682,-117.17226 c 17.56624,-255.64809 257.7916,-437.61562 507.11768,-416.71916 293.82215,24.62576 501.85881,302.02085 474.48658,589.579431 C 295.72512,387.68578 -18.930669,621.84559 -344.71374,587.94203 -714.88917,549.41864 -975.209,197.44096 -934.73518,-166.56091 -888.93904,-578.42917 -503.50595,-861.834 -97.770494,-814.34978 352.61702,-761.63982 661.94816,-339.20779 607.7858,105.07666"
       sodipodi:t0="0"
       sodipodi:argument="-18.675243"
       sodipodi:radius="854.32147"
       sodipodi:revolution="3"
       sodipodi:expansion="1"
       sodipodi:cy="-43.089287"
       sodipodi:cx="-233.58928"
       id="path347"
       style="fill:none;fill-rule:evenodd;stroke:#000000;stroke-width:0.264583"
       sodipodi:type="spiral" />
    <path
       d="m 574.52386,131.53571 c -25.12919,9.39974 -25.06852,-29.23616 -15.62298,-41.766384 25.59682,-33.95613 76.75103,-17.986281 99.15574,10.520404 40.07677,50.99178 14.14956,124.18659 -36.66379,156.54511 C 546.82219,304.32228 449.01942,267.33219 407.45835,194.02765 352.06397,96.324237 400.5167,-26.813388 496.40893,-77.296193 617.07952,-140.82365 765.85489,-80.735701 825.12214,37.797785 896.90273,181.35772 825.0912,355.92668 683.88477,423.90036 517.47789,504.005 317.0242,420.41897 240.39283,256.5196 151.91888,67.291294 247.31134,-159.10519 433.91698,-244.36171 645.95018,-341.23558 898.32881,-234.01538 992.18766,-24.694162 1097.4831,210.13261 978.42024,488.52132 746.37672,590.96588 488.76443,704.69876 184.34509,573.78239 73.327309,319.01155"
       sodipodi:t0="0"
       sodipodi:argument="-16.065907"
       sodipodi:radius="535.1123"
       sodipodi:revolution="3"
       sodipodi:expansion="1"
       sodipodi:cy="131.53571"
       sodipodi:cx="574.52386"
       id="path349"
       style="fill:none;fill-rule:evenodd;stroke:#000000;stroke-width:0.264583"
       sodipodi:type="spiral" />
    <path
       d="m 28.726189,356.05356 c 5.685318,-24.44696 35.758943,-4.39757 40.632448,9.44937 13.206895,37.52436 -25.71973,69.11594 -59.5311949,71.81552 C -50.653336,442.14737 -94.263909,384.0514 -93.171155,327.70544 -91.567495,245.01548 -12.111603,187.95776 66.523682,193.52377 171.33215,200.94238 242.19646,302.44599 231.88843,403.30042 218.91682,530.21544 95.074199,615.033 -27.970051,599.84825 -176.99312,581.45747 -275.83962,435.12631 -255.70095,289.90795 -231.96821,118.77313 -63.061646,5.8530429 104.32117,30.993976 297.57127,60.020177 424.59367,251.55709 394.41822,441.09792 360.13096,656.46625 145.92672,797.61059 -65.767544,762.37804 -303.25652,722.85243 -458.53684,485.95479 -418.23074,252.11045 -373.48333,-7.5010891 -113.87319,-176.92778 142.11867,-131.53582"
       sodipodi:t0="0"
       sodipodi:argument="-20.191856"
       sodipodi:radius="500.60089"
       sodipodi:revolution="3"
       sodipodi:expansion="1"
       sodipodi:cy="356.05356"
       sodipodi:cx="28.726189"
       id="path351"
       style="fill:none;fill-rule:evenodd;stroke:#000000;stroke-width:0.264583"
       sodipodi:type="spiral" />
    <path
       d="m 170.84525,-179.16072 c -13.569,32.0274 -49.86677,-2.48955 -53.23166,-22.55257 -9.11863,-54.36954 51.53226,-88.25599 98.33679,-83.91073 83.72232,7.77265 129.4653,97.45055 114.58982,174.12099 C 308.70983,1.0139394 186.67489,60.043022 80.634986,33.765886 -60.699529,-1.2574024 -133.3421,-156.67384 -95.313013,-291.92355 -47.457294,-462.1215 141.77317,-548.5086 306.16063,-498.55063 505.25588,-438.04484 605.45533,-214.77821 543.46681,-21.292766 470.41548,206.72313 212.98349,320.77527 -9.5752741,246.69249 -266.52817,161.161 -394.45916,-130.5182 -308.23962,-382.13381 -210.2715,-668.03545 115.71004,-809.8633 396.37089,-711.47724 711.22996,-601.10294 866.96764,-240.78011 756.39341,68.917493 633.63506,412.74054 238.9424,582.39771 -99.785534,459.6191"
       sodipodi:t0="0"
       sodipodi:argument="-16.878017"
       sodipodi:radius="693.74396"
       sodipodi:revolution="3"
       sodipodi:expansion="1"
       sodipodi:cy="-179.16072"
       sodipodi:cx="170.84525"
       id="path353"
       style="fill:none;fill-rule:evenodd;stroke:#000000;stroke-width:0.264583"
       sodipodi:type="spiral" />
    <path
       d="m -67.279762,185.96428 c 19.519979,-2.19625 12.590964,25.22899 3.650305,32.44349 -24.228635,19.55084 -57.707933,-0.90666 -68.537283,-25.14288 -19.37117,-43.35291 12.08544,-90.70897 53.936062,-104.631077 C -16.81321,68.20256 46.045708,111.90091 62.494193,171.36306 84.417437,250.61675 28.063932,329.42347 -49.028237,348.18172 -146.04086,371.78707 -240.97971,302.60186 -261.9407,207.86611 -287.32726,93.128419 -205.21983,-18.037475 -92.831898,-41.140143 39.613392,-68.365838 167.06198,26.71621 192.26815,156.76184 221.36967,306.90466 113.27998,450.67149 -34.427016,477.95568 -202.26109,508.95771 -362.3703,387.83823 -391.71465,222.46733 -424.63458,36.946175 -290.46973,-139.52258 -107.43312,-170.9141 95.772217,-205.76463 288.61319,-58.543049 322.0421,142.16062"
       sodipodi:t0="0"
       sodipodi:argument="-18.961597"
       sodipodi:radius="391.77835"
       sodipodi:revolution="3"
       sodipodi:expansion="1"
       sodipodi:cy="185.96428"
       sodipodi:cx="-67.279762"
       id="path355"
       style="fill:none;fill-rule:evenodd;stroke:#000000;stroke-width:0.264583"
       sodipodi:type="spiral" />
    <path
       d="m 473.98215,384.0238 c -28.61621,-13.83429 4.53012,-45.39943 22.9935,-47.56202 50.03463,-5.86049 78.21567,51.02846 72.13054,93.54904 -10.88487,76.05934 -94.80291,113.74719 -164.10456,96.69905 C 303.29867,501.69104 254.95006,387.63993 283.73406,292.04978 322.0986,164.64314 467.23259,105.38136 588.94968,146.21369 742.11821,197.59702 812.39318,374.2146 759.35428,521.98484 695.11707,700.95441 486.81011,782.29441 313.0276,716.95796 108.23093,639.96122 15.79495,399.84512 93.485967,200.07575 183.18332,-30.5659 455.18443,-134.11804 680.92371,-44.034399 937.42303,58.32436 1052.1053,362.26162 949.60237,613.95887 834.60961,896.32515 498.70007,1022.1476 221.05357,907.20605 -87.18666,779.59917 -224.15679,411.69086 -96.762123,108.10172"
       sodipodi:t0="0"
       sodipodi:argument="-21.540834"
       sodipodi:radius="633.94165"
       sodipodi:revolution="3"
       sodipodi:expansion="1"
       sodipodi:cy="384.0238"
       sodipodi:cx="473.98215"
       id="path357"
       style="fill:none;fill-rule:evenodd;stroke:#000000;stroke-width:0.264583"
       sodipodi:type="spiral" />
  </g>
</svg>
