<?xml version="1.0" encoding="UTF-8" standalone="no"?>
<svg
   xmlns:dc="http://purl.org/dc/elements/1.1/"
   xmlns:cc="http://creativecommons.org/ns#"
   xmlns:rdf="http://www.w3.org/1999/02/22-rdf-syntax-ns#"
   xmlns:svg="http://www.w3.org/2000/svg"
   xmlns="http://www.w3.org/2000/svg"
   xmlns:sodipodi="http://sodipodi.sourceforge.net/DTD/sodipodi-0.dtd"
   xmlns:inkscape="http://www.inkscape.org/namespaces/inkscape"
   sodipodi:docname="dessin.svg"
   inkscape:version="1.0 (4035a4fb49, 2020-05-01)"
   id="svg8"
   version="1.1"
   viewBox="0 0 210 297"
   height="297mm"
   width="210mm">
  <defs
     id="defs2" />
  <sodipodi:namedview
     inkscape:window-maximized="0"
     inkscape:window-y="0"
     inkscape:window-x="104"
     inkscape:window-height="1040"
     inkscape:window-width="1577"
     showgrid="false"
     inkscape:document-rotation="0"
     inkscape:current-layer="layer1"
     inkscape:document-units="mm"
     inkscape:cy="560"
     inkscape:cx="400"
     inkscape:zoom="0.35"
     inkscape:pageshadow="2"
     inkscape:pageopacity="0.0"
     borderopacity="1.0"
     bordercolor="#666666"
     pagecolor="#ffffff"
     id="base" />
  <metadata
     id="metadata5">
    <rdf:RDF>
      <cc:Work
         rdf:about="">
        <dc:format>image/svg+xml</dc:format>
        <dc:type
           rdf:resource="http://purl.org/dc/dcmitype/StillImage" />
        <dc:title></dc:title>
      </cc:Work>
    </rdf:RDF>
  </metadata>
  <g
     id="layer1"
     inkscape:groupmode="layer"
     inkscape:label="Calque 1">
    <rect
       y="-55.184521"
       x="-258.53571"
       height="294.82144"
       width="790.7262"
       id="rect10"
       style="fill:#0000ff;fill-rule:evenodd;stroke-width:0.264583" />
    <ellipse
       ry="46.869045"
       rx="86.178574"
       cy="30.238094"
       cx="-143.63095"
       id="path16"
       style="fill:#ff0000;fill-rule:evenodd;stroke-width:0.264583" />
    <ellipse
       ry="43.467262"
       rx="78.997025"
       cy="57.074402"
       cx="407.08035"
       id="path20"
       style="fill:#ff0000;fill-rule:evenodd;stroke-width:0.264583" />
    <path
       id="path24"
       d="m 124.73214,25.702381 c -0.53224,25.228854 -0.98997,50.351018 0,75.595239 0.95164,24.26677 0.75595,3.52175 0.75595,24.19047 0,7.81151 -0.86263,15.6708 0,23.43453 0.63496,5.71459 3.40086,11.7126 4.53572,17.3869 0.44718,2.23591 1.05386,4.51338 1.5119,6.80357 0.0988,0.49419 -0.0901,2.00775 0,1.51191 3.03863,-16.71243 7.97709,-32.66429 12.09524,-49.13691 1.96426,-7.85703 1.80582,-16.10481 2.26786,-24.19047 0.21563,-3.773607 -0.31389,-7.572582 0,-11.339288 0.71249,-8.549904 2.32739,-26.240054 0,-34.773809 -0.9018,-3.306587 -2.5987,-6.426493 -3.02381,-9.827381 -0.40663,-3.25302 -0.48622,-5.238403 -1.51191,-8.315476 -0.0797,-0.239053 0,-0.503968 0,-0.755951 0,-1.511906 0.51669,-3.114837 0,-4.535715 -0.9022,-2.48107 -5.29166,-6.052659 -5.29166,-9.071429"
       style="fill:none;stroke:#000000;stroke-width:0.264583px;stroke-linecap:butt;stroke-linejoin:miter;stroke-opacity:1" />
    <path
       id="path26"
       d="m -169.33333,162.52976 c 0.25198,3.27579 -0.24022,6.69657 0.75595,9.82738 3.67279,11.54306 20.55509,16.9707 30.2381,21.16667 18.63025,8.07311 6.85711,2.78967 16.63095,6.04761 0.33807,0.1127 0.40808,0.67865 0.75595,0.75596 7.23954,1.60878 14.65473,2.92063 21.92262,4.53571 0.491967,0.10933 1.048684,-0.19852 1.511904,0 1.350507,0.57879 2.408391,1.74041 3.779763,2.26786 1.939412,0.74593 4.105833,0.77218 6.047618,1.5119 3.371504,1.28439 6.484816,3.1778 9.827382,4.53572 9.959972,4.04624 20.234407,6.49282 30.238094,9.82738 4.659185,1.55306 8.605128,3.3814 13.607142,4.53571 0.736595,0.16999 1.534475,-0.18334 2.267857,0 6.617769,1.65445 12.756117,4.37185 19.654762,5.29167 8.7874307,1.17166 18.3775101,0 27.214285,0 8.456692,0 17.542537,1.20804 25.70238,-1.51191 5.9001,-1.96669 11.531576,-4.85179 17.386906,-6.80357 3.427936,-1.14264 6.510604,-3.87019 9.827381,-5.29166 2.092648,-0.89685 8.150461,0 9.827379,0 5.065091,0 12.832016,0.96561 18.142857,0 1.804882,-0.32816 3.486785,-1.18375 5.29167,-1.51191 1.51058,-0.27465 18.6044,0.46155 18.89881,0.75596 0.17818,0.17817 -0.22538,0.64326 0,0.75595 1.11249,0.55624 11.90522,0.13091 13.60714,0 10.64399,-0.81877 21.08996,-3.71571 31.75,-4.53572 4.44743,-0.34211 9.14668,0 13.60714,0 2.36084,0 5.92202,-0.47869 8.31548,0 7.18459,1.43692 30.4094,4.66564 37.79762,3.02381 4.05686,-0.90152 8.00644,-2.28039 12.09524,-3.02381 1.48751,-0.27045 3.02826,0.11596 4.53571,0 6.81819,-0.52447 13.69178,-0.77476 20.41071,-2.26785 2.93181,-0.65151 5.4318,-1.69112 8.31547,-2.26786 2.87462,-0.57492 5.10402,0.0469 8.31548,-0.75595 6.7791,-1.69477 13.40848,-4.17131 20.41073,-5.29167 4.01209,-0.64193 8.08738,-0.84393 12.09524,-1.5119 5.45549,-0.90926 10.5774,-3.35848 15.875,-4.53572 4.04333,-0.89852 8.7495,0.58595 12.85118,0 8.60176,-1.22882 14.81714,-7.58126 22.67858,-9.82738 4.09598,-1.17028 10.33491,0.5493 14.36309,0 7.92781,-1.08107 15.49445,-4.15737 23.43451,-5.29167 2.84015,-0.40573 7.98037,-0.046 10.58334,-0.75595 4.78861,-1.30598 8.94246,-4.35137 13.60715,-6.04762 18.3075,-6.65727 0.35266,0.14205 13.60715,-2.26785 3.05255,-0.55502 2.26168,-1.51191 4.5357,-1.51191"
       style="fill:none;stroke:#000000;stroke-width:0.264583px;stroke-linecap:butt;stroke-linejoin:miter;stroke-opacity:1" />
    <path
       id="path28"
       d="m -15.119047,-112.6369 -5.291667,-6.04762"
       style="fill:none;stroke:#000000;stroke-width:0.264583px;stroke-linecap:butt;stroke-linejoin:miter;stroke-opacity:1" />
  </g>
</svg>
